<?xml version="1.0" standalone="no"?><!DOCTYPE svg PUBLIC "-//W3C//DTD SVG 1.1//EN" "http://www.w3.org/Graphics/SVG/1.1/DTD/svg11.dtd"><svg t="1583819894726" class="icon" viewBox="0 0 1024 1024" version="1.1" xmlns="http://www.w3.org/2000/svg" p-id="4484" xmlns:xlink="http://www.w3.org/1999/xlink" width="200" height="200"><defs><style type="text/css"></style></defs><path d="M697.998222 103.992889a17289.756444 17289.756444 0 0 1 289.991111 234.012444c24.007111 19.996444 36.010667 44.657778 36.010667 73.984v516.010667c0 26.680889-9.329778 49.322667-27.989333 67.982222-18.688 18.688-41.358222 28.017778-68.010667 28.017778H96c-26.680889 0-49.322667-9.329778-67.982222-27.989333C9.301333 977.322667 0 954.680889 0 928v-515.982222c0-29.354667 12.003556-54.016 36.010667-74.012445a17292.515556 17292.515556 0 0 1 289.991111-234.012444c2.673778-2.645333 11.662222-10.325333 27.022222-22.983111 15.303111-12.686222 27.648-22.328889 36.977778-29.013334 9.329778-6.656 21.333333-14.648889 36.010666-24.007111a188.757333 188.757333 0 0 1 43.975112-20.992A138.496 138.496 0 0 1 512 0c10.666667 0 21.333333 1.336889 32 3.982222a171.52 171.52 0 0 1 31.004444 11.008c9.984 4.664889 19.342222 9.671111 27.989334 15.018667 8.675556 5.319111 18.005333 11.662222 28.017778 19.000889 9.984 7.338667 18.318222 13.994667 24.974222 19.996444 6.684444 5.973333 14.336 12.657778 23.04 19.996445 8.647111 7.338667 14.961778 12.344889 18.972444 14.990222z m230.001778 856.007111c9.329778 0 17.009778-2.986667 23.011556-8.988444 5.973333-6.001778 8.988444-13.653333 8.988444-23.011556v-515.982222c0-9.358222-3.982222-17.351111-12.003556-24.007111a16837.290667 16837.290667 0 0 0-289.991111-234.012445c-1.336889 0-11.008-7.68-29.013333-23.011555a680.049778 680.049778 0 0 0-40.988444-32.995556 318.663111 318.663111 0 0 0-36.977778-21.987555c-15.36-7.992889-28.359111-12.003556-39.025778-12.003556-10.666667 0-23.665778 3.982222-38.997333 12.003556-15.36 7.992889-27.676444 15.331556-36.977778 21.987555-9.358222 6.684444-23.04 17.664-41.016889 32.995556-18.005333 15.36-27.676444 23.011556-29.013333 23.011555a43093.987556 43093.987556 0 0 0-289.991111 234.012445c-7.992889 6.656-12.003556 14.648889-12.003556 23.978666v516.010667c0 9.329778 2.986667 17.009778 8.988444 23.011556 6.001778 5.973333 13.653333 8.988444 23.011556 8.988444z m-18.005333-431.985778c10.666667 11.975111 9.329778 23.324444-3.982223 33.991111-46.677333 37.319111-116.024889 92.672-208.014222 166.001778-2.673778 2.673778-11.662222 10.325333-27.022222 22.983111-15.303111 12.686222-27.648 22.357333-36.977778 29.013334-9.329778 6.656-21.333333 14.677333-36.010666 24.007111a188.757333 188.757333 0 0 1-43.975112 20.992A138.496 138.496 0 0 1 512 832c-13.340444 0-27.335111-2.332444-42.012444-6.997333a208.696889 208.696889 0 0 1-44.999112-20.992 623.217778 623.217778 0 0 1-36.977777-24.007111c-9.358222-6.656-21.333333-16.668444-36.010667-30.008889s-23.324444-20.650667-25.998222-21.987556a164005.603556 164005.603556 0 0 1-208.014222-166.001778c-13.312-10.666667-14.648889-22.016-3.982223-33.991111l9.984-14.023111c9.329778-12.003556 20.679111-12.657778 34.019556-1.991111 46.648889 37.347556 115.996444 92.672 207.985778 166.001778l28.017777 23.011555c18.659556 15.331556 32.654222 26.311111 41.984 32.995556 9.329778 6.656 21.674667 13.994667 36.977778 21.987555 15.36 7.992889 28.359111 12.003556 39.025778 12.003556 10.666667 0 23.665778-3.982222 38.997333-12.003556 15.36-7.992889 27.676444-15.331556 36.977778-21.987555 9.358222-6.684444 23.352889-17.664 42.012445-32.995556l28.017777-23.011555c91.989333-73.329778 161.336889-128.654222 207.985778-166.001778 13.340444-10.666667 24.661333-10.012444 34.019556 1.991111z" p-id="4485"></path></svg>