<?xml version="1.0" standalone="no"?><!DOCTYPE svg PUBLIC "-//W3C//DTD SVG 1.1//EN" "http://www.w3.org/Graphics/SVG/1.1/DTD/svg11.dtd"><svg t="1583819869123" class="icon" viewBox="0 0 1024 1024" version="1.1" xmlns="http://www.w3.org/2000/svg" p-id="3755" xmlns:xlink="http://www.w3.org/1999/xlink" width="200" height="200"><defs><style type="text/css"></style></defs><path d="M801.216 299.616a330.88 330.88 0 0 0-67.392-105.088 312.96 312.96 0 0 0-99.712-71.296 297.888 297.888 0 0 0-244.32 0.096 312.256 312.256 0 0 0-99.712 71.2 333.504 333.504 0 0 0-67.392 105.088A340.896 340.896 0 0 0 197.984 428v435.712c0 35.616 27.488 64.512 61.408 64.512h504.992c33.888 0 61.408-28.896 61.312-64.512V479.2l0.192-17.696V428c0-44.384-8.288-87.584-24.704-128.416zM414.4 181.6h0.192l1.184-0.512a230.272 230.272 0 0 1 96.096-20.8 234.88 234.88 0 0 1 96.192 20.608 254.976 254.976 0 0 1 79.712 56.896 271.168 271.168 0 0 1 54.592 85.312A278.4 278.4 0 0 1 762.56 428v27.392H261.152v-27.488c0-36.096 6.816-71.392 20.192-104.8a268.8 268.8 0 0 1 54.592-85.184 249.408 249.408 0 0 1 78.4-56.288z m348.384 336.992V863.68a4.224 4.224 0 0 1-0.192 1.312H261.408a4.064 4.064 0 0 1-0.192-1.312V518.592h501.6zM482.688 660.896v82.912c0 16.192 13.184 29.408 29.408 29.408s29.408-13.216 29.408-29.408v-83.104c15.616-10.016 24.896-26.912 24.896-45.6a54.432 54.432 0 0 0-108.8 0c0 18.496 9.6 35.904 25.088 45.792z" p-id="3756"></path></svg>